<!-- Exported by Character Map UWP -->
<svg height="100%" viewBox="337 235 347 715" width="100%" xmlns="http://www.w3.org/2000/svg" xmlns:xlink="http://www.w3.org/1999/xlink">
  <path d="M621.568,580.608L600.064,569.344C596.992,568.32 595.968,565.248 595.968,562.176C595.968,559.104 596.992,557.056 605.184,552.96C637.952,534.528 661.504,494.592 661.504,451.584L661.504,382.976C661.504,300.032 594.944,234.496 508.928,234.496L390.144,234.496L390.144,314.368L508.928,314.368C549.888,314.368 581.632,344.064 581.632,382.976L581.632,451.584C581.632,464.896 574.464,478.208 557.056,487.424C532.48,500.736 515.072,530.432 516.096,563.2C516.096,595.968 533.504,626.688 563.2,641.024L584.704,651.264C594.944,657.408 602.112,668.672 602.112,680.96L602.112,795.648C602.112,839.68 558.08,869.376 516.096,869.376L390.144,869.376L390.144,949.248L516.096,949.248C608.256,949.248 683.008,880.64 683.008,795.648L683.008,680.96C683.008,638.976 659.456,600.064 621.568,580.608ZM479.232,787.456L479.232,706.56L464.896,706.56C421.888,706.56 416.768,679.936 416.768,660.48L416.768,508.928C416.768,488.448 421.888,461.824 464.896,461.824L479.232,461.824L479.232,381.952L464.896,381.952C388.096,381.952 336.896,433.152 336.896,508.928L336.896,660.48C336.896,736.256 388.096,787.456 464.896,787.456Z" fill="#FFFFFF" fill-opacity="1">
  </path>
</svg>